<svg width="1200" height="116" viewBox="0 0 1200 116" fill="none" xmlns="http://www.w3.org/2000/svg">
<path d="M0 114.173V2.4357H21.3843V47.6483H74.9209V2.4357H96.3052V114.173H74.9209V65.916H21.3843V114.173H0Z" fill="#121B21"/>
<path d="M116.941 114.173V33.0341H137.415V114.173H116.941ZM127.254 22.2257C120.126 22.2257 115.272 17.5066 115.272 11.1129C115.272 4.56693 120.126 0 127.254 0C134.382 0 139.235 4.56693 139.235 11.1129C139.235 17.5066 134.382 22.2257 127.254 22.2257Z" fill="#121B21"/>
<path d="M187.453 116C171.68 116 160.912 107.78 160.912 89.3596V50.084H148.931V35.3176L160.912 33.3386V14.9186L181.235 8.98163V33.0341H202.012V50.084H181.386V87.0761C181.386 95.2966 185.481 98.7979 192.154 98.7979C195.642 98.7979 199.282 97.8845 202.012 96.6667V113.564C198.069 114.934 192.913 116 187.453 116Z" fill="#121B21"/>
<path d="M238.658 116C221.52 116 211.055 106.257 211.055 91.7953C211.055 76.42 223.036 69.4173 241.994 66.2205L262.013 63.0236C261.71 51.4541 255.795 47.1916 244.876 47.1916C235.776 47.1916 226.07 49.9318 217.728 54.4987V37.9055C225.615 33.9475 235.776 31.2074 246.999 31.2074C268.687 31.2074 282.336 41.8635 282.336 63.4803V94.0787C282.336 98.9501 284.004 101.538 288.706 101.538C290.526 101.538 292.497 101.081 294.469 100.625V114.021C290.374 115.391 286.279 116 282.488 116C272.63 116 267.17 111.89 264.44 104.43H262.468L252.762 113.717C248.364 115.239 243.511 116 238.658 116ZM244.724 100.168C250.79 100.168 256.705 98.4934 262.013 95.4488V75.9633L245.331 78.7034C236.231 80.378 231.681 83.4226 231.681 89.9685C231.681 96.5144 236.231 100.168 244.724 100.168Z" fill="#121B21"/>
<path d="M344.645 116C317.801 116 300.36 97.8845 300.36 73.6798C300.36 49.3228 317.801 31.2074 344.645 31.2074C352.987 31.2074 360.57 32.8819 367.395 36.0787V53.8898C362.087 50.8452 355.262 48.5617 347.375 48.5617C331.299 48.5617 321.138 58 321.138 73.6798C321.138 89.3596 331.299 98.6457 347.375 98.6457C355.11 98.6457 362.087 96.5144 367.395 93.3176V111.129C360.57 114.325 352.987 116 344.645 116Z" fill="#121B21"/>
<path d="M382.053 114.173V2.4357H402.527V41.4068H404.044L412.385 33.4908C416.631 32.273 421.485 31.2074 426.944 31.2074C444.841 31.2074 457.125 42.3202 457.125 62.1102V114.173H436.651V65.4593C436.651 53.2808 430.584 48.5617 420.423 48.5617C413.447 48.5617 407.077 50.8451 402.527 53.4331V114.173H382.053Z" fill="#121B21"/>
<path d="M474.323 114.173V33.0341H494.798V114.173H474.323ZM484.636 22.2257C477.508 22.2257 472.655 17.5066 472.655 11.1129C472.655 4.56693 477.508 0 484.636 0C491.764 0 496.618 4.56693 496.618 11.1129C496.618 17.5066 491.764 22.2257 484.636 22.2257Z" fill="#121B21"/>
<path d="M587.952 114.173L547.155 2.4357H570.511L600.237 89.8163H601.45L631.934 2.4357H654.532L613.432 114.173H587.952Z" fill="#121B21"/>
<path d="M697.017 116C668.96 116 651.67 98.9501 651.67 73.6798C651.67 48.5617 668.657 31.2074 692.922 31.2074C717.795 31.2074 733.113 49.1706 733.113 73.5276V78.0945H672.751C674.42 90.8819 682.609 99.2546 698.686 99.2546C709.605 99.2546 720.828 95.2966 728.26 91.0341V108.388C719.615 113.108 708.392 116 697.017 116ZM673.358 64.8504H711.88C709.757 53.8898 703.084 47.9528 693.226 47.9528C683.216 47.9528 675.785 54.1942 673.358 64.8504Z" fill="#121B21"/>
<path d="M747.433 114.173V33.0341H764.116L765.936 42.7769H767.756L777.462 33.4908C781.557 32.273 786.41 31.2074 792.022 31.2074C810.221 31.2074 822.506 42.3202 822.506 62.1102V114.173H802.031V65.4593C802.031 53.4331 795.965 48.5617 785.652 48.5617C778.827 48.5617 772.457 50.8451 767.907 53.2808V114.173H747.433Z" fill="#121B21"/>
<path d="M870.967 116C855.195 116 844.427 107.78 844.427 89.3596V50.084H832.445V35.3176L844.427 33.3386V14.9186L864.749 8.98163V33.0341H885.527V50.084H864.901V87.0761C864.901 95.2966 868.996 98.7979 875.669 98.7979C879.157 98.7979 882.797 97.8845 885.527 96.6667V113.564C881.584 114.934 876.427 116 870.967 116Z" fill="#121B21"/>
<path d="M927.025 116C908.826 116 897.3 104.887 897.3 85.0971V33.0341H917.774V81.5958C917.774 93.7743 923.082 98.6457 933.395 98.6457C940.372 98.6457 946.741 96.3622 951.14 93.9265V33.0341H971.614V114.173H954.931L953.111 104.43H951.291L941.585 113.717C937.642 114.934 932.485 116 927.025 116Z" fill="#121B21"/>
<path d="M989.44 114.173V33.0341H1006.12L1007.94 42.7769H1009.61L1019.32 33.7953C1024.02 32.273 1031.15 31.3596 1036.61 31.2074V49.6273C1026.9 49.9318 1018.26 51.3018 1009.91 53.7375V114.173H989.44Z" fill="#121B21"/>
<path d="M1088.46 116C1060.41 116 1043.12 98.9501 1043.12 73.6798C1043.12 48.5617 1060.1 31.2074 1084.37 31.2074C1109.24 31.2074 1124.56 49.1706 1124.56 73.5276V78.0945H1064.2C1065.87 90.8819 1074.06 99.2546 1090.13 99.2546C1101.05 99.2546 1112.28 95.2966 1119.71 91.0341V108.388C1111.06 113.108 1099.84 116 1088.46 116ZM1064.81 64.8504H1103.33C1101.2 53.8898 1094.53 47.9528 1084.67 47.9528C1074.66 47.9528 1067.23 54.1942 1064.81 64.8504Z" fill="#121B21"/>
<path d="M1165.57 116C1153.44 116 1143.13 112.803 1135.39 108.845V91.4908C1144.49 96.8189 1155.26 100.32 1164.97 100.32C1173.76 100.32 1179.83 97.2756 1179.83 90.7297C1179.83 85.5538 1176.19 83.2703 1169.52 81.5958L1159.05 79.3123C1147.07 76.42 1135.7 70.3307 1135.7 55.8688C1135.7 39.4278 1150.41 31.2074 1168.91 31.2074C1180.59 31.2074 1189.99 34.4042 1196.21 37.7533V54.9554C1188.63 49.7795 1178.77 46.8871 1169.82 46.8871C1161.48 46.8871 1155.87 49.4751 1155.87 55.2598C1155.87 59.979 1159.96 61.6535 1165.12 62.8714L1174.82 65.4593C1188.02 68.8084 1200 74.4409 1200 90.273C1200 108.388 1184.68 116 1165.57 116Z" fill="#121B21"/>
</svg>
