<svg version="1.1" id="Layer_1" xmlns="http://www.w3.org/2000/svg" xmlns:xlink="http://www.w3.org/1999/xlink" x="0px" y="0px"
	 width="100%" viewBox="0 0 3073 1042" enable-background="new 0 0 3073 1042" xml:space="preserve">
<path fill="#FFFFFF" opacity="1.000000" stroke="none" 
	d="
M1.000000,626.000000 
	C1.000000,556.979126 1.000000,487.958221 1.465235,418.407349 
	C28.192965,417.877411 54.455460,417.877411 81.199852,417.877411 
	C81.199852,361.499939 81.199852,305.767761 81.199852,250.107605 
	C128.791611,250.107605 175.896515,250.107605 223.564163,250.107605 
	C223.564163,306.084900 223.564163,361.812805 223.564163,417.576294 
	C250.547516,417.576294 276.966003,417.576294 303.856415,417.576294 
	C303.856415,415.336975 303.856384,413.378754 303.856384,411.420532 
	C303.856415,276.610535 303.855774,141.800552 303.862366,6.990558 
	C303.862457,4.993703 303.952118,2.996852 304.000000,1.000000 
	C345.354218,1.000000 386.708466,1.000000 428.312439,1.260077 
	C426.406952,3.028527 424.001526,4.279699 422.140198,6.090281 
	C414.499542,13.522643 407.285553,21.413616 399.393066,28.559870 
	C394.460419,33.026138 392.895538,38.018112 392.903320,44.422966 
	C393.019196,139.866348 392.983612,235.309921 392.983612,330.753448 
	C392.983612,345.911133 393.051270,361.069336 392.943085,376.226257 
	C392.907806,381.168365 394.322418,385.168793 397.988495,388.692322 
	C406.393158,396.770020 414.482941,405.174408 422.808289,413.336334 
	C424.279877,414.779053 426.272827,415.690002 428.255798,416.964966 
	C428.658630,417.065918 428.830658,417.048401 429.111145,417.171692 
	C429.219666,417.312500 429.571289,417.364746 429.861786,417.589447 
	C431.111633,417.787537 432.070984,417.760895 433.494629,417.782745 
	C473.537445,417.836365 513.115967,417.857880 552.694519,417.841583 
	C585.785767,417.827972 618.876953,417.770142 652.332397,417.847168 
	C653.750000,417.623077 654.803406,417.283661 655.928467,416.483948 
	C656.000000,389.998596 656.000000,363.973511 656.000000,337.852020 
	C608.808960,337.852020 562.387390,337.839233 515.965881,337.859741 
	C501.992188,337.865906 488.018524,337.964600 473.734497,337.731659 
	C473.337311,336.119629 473.175537,334.796875 473.174774,333.474060 
	C473.159882,306.986572 473.159485,280.499115 473.175659,254.011627 
	C473.176453,252.731934 473.355804,251.452332 473.491669,249.645416 
	C526.453186,249.645416 579.149414,249.645416 631.757080,249.645416 
	C631.757080,222.653809 631.757080,196.215210 631.757080,169.223633 
	C578.784729,169.223633 526.082825,169.223633 473.430542,169.223633 
	C473.430542,139.579575 473.430542,110.491577 473.430542,80.902008 
	C534.392822,80.902008 595.090515,80.902008 656.000000,80.902008 
	C656.000000,53.932785 656.000000,27.466393 656.000000,1.000000 
	C682.687561,1.000000 709.375122,1.000000 736.458801,1.463848 
	C736.847168,127.048988 736.852966,252.170288 736.778320,377.291534 
	C736.775574,381.956482 738.231506,385.585999 741.560852,388.823669 
	C749.562622,396.605042 757.493530,404.466309 765.236084,412.504333 
	C768.983215,416.394501 773.225281,417.928436 778.581360,417.919586 
	C837.893066,417.821838 897.204956,417.858459 956.516846,417.858765 
	C958.289917,417.858765 960.062927,417.858734 961.820862,417.858734 
	C961.820862,390.854370 961.820862,364.465454 961.820862,337.676086 
	C913.402039,337.676086 865.326233,337.676086 816.851746,337.676086 
	C816.851746,335.479218 816.851746,333.675232 816.851746,331.871277 
	C816.851746,223.243927 816.851074,114.616592 816.857910,5.989247 
	C816.858032,4.326161 816.950623,2.663082 817.000000,1.000000 
	C881.687561,1.000000 946.375122,1.000000 1011.467773,1.464958 
	C1011.866577,139.119705 1011.859924,276.309509 1011.862366,413.499298 
	C1011.862366,414.659210 1011.986084,415.819122 1012.137207,417.330139 
	C1013.156616,417.697266 1014.090820,417.713287 1015.489380,417.780640 
	C1039.958496,417.798065 1063.963379,417.764160 1088.354126,417.845459 
	C1090.930664,418.161987 1092.617676,417.858826 1091.780762,414.511749 
	C1091.835815,339.018097 1091.842041,263.988983 1091.836792,188.959869 
	C1091.836670,187.635513 1091.700073,186.311142 1091.726074,184.537292 
	C1091.796509,180.406372 1091.768311,176.724960 1091.852051,172.619751 
	C1091.889404,170.453781 1091.814941,168.711624 1091.791138,166.580414 
	C1091.911011,164.923431 1091.980225,163.655487 1092.104126,161.385910 
	C1093.527100,163.697983 1094.488403,165.178192 1095.370117,166.704346 
	C1117.569824,205.131790 1139.827393,243.526169 1161.888184,282.033234 
	C1165.523682,288.379028 1170.359985,291.236359 1177.670898,291.099396 
	C1191.994629,290.830933 1206.332031,290.792053 1220.653687,291.108948 
	C1228.333008,291.278900 1233.377197,288.423248 1237.229980,281.677521 
	C1258.991821,243.575562 1281.027222,205.629929 1302.977417,167.635574 
	C1303.798096,166.214844 1304.700439,164.841293 1305.564697,163.445740 
	C1305.931396,163.588913 1306.298218,163.732101 1306.664917,163.875275 
	C1306.664917,248.441757 1306.664917,333.008240 1306.664917,417.554596 
	C1333.585083,417.554596 1360.001221,417.554596 1386.858276,417.554596 
	C1386.858276,415.286072 1386.858276,413.323639 1386.858276,411.361176 
	C1386.858276,276.570740 1386.857788,141.780334 1386.864258,6.989902 
	C1386.864380,4.993266 1386.952759,2.996634 1387.000000,1.000000 
	C1417.354248,1.000000 1447.708496,1.000000 1478.594238,1.465046 
	C1479.125854,140.445847 1479.125854,278.961609 1479.125854,417.588501 
	C1506.217285,417.588501 1532.612549,417.588501 1559.579590,417.588501 
	C1559.579590,361.627045 1559.579590,305.937500 1559.579590,249.856903 
	C1565.780029,249.856903 1571.415039,249.850815 1577.050049,249.857880 
	C1618.689209,249.910034 1660.328369,249.964783 1701.979248,250.485687 
	C1701.988647,285.849365 1701.967285,320.746033 1701.991333,355.642731 
	C1702.005371,376.078583 1702.091187,396.514404 1702.208008,417.306610 
	C1703.207397,417.685577 1704.143799,417.708160 1705.541016,417.780579 
	C1730.308350,417.796051 1754.614746,417.761658 1779.271729,417.842346 
	C1780.398926,417.631531 1781.175171,417.305634 1782.037109,416.521790 
	C1782.129272,278.705414 1782.135986,141.346924 1782.136108,3.988452 
	C1782.136108,2.992302 1782.047363,1.996151 1782.000000,1.000000 
	C1841.020874,1.000000 1900.041870,1.000000 1959.275879,1.282328 
	C1945.461304,3.832271 1933.130493,9.648984 1922.981445,19.631979 
	C1908.491211,33.885071 1894.046509,48.190067 1879.841309,62.725826 
	C1867.828857,75.017853 1861.293213,90.020912 1861.225220,107.190041 
	C1860.958740,174.503738 1860.944214,241.818939 1861.048218,309.133240 
	C1861.078125,328.516235 1868.401367,344.963531 1882.336792,358.606934 
	C1895.191528,371.192200 1907.910889,383.932556 1920.275146,396.997162 
	C1933.418945,410.885681 1949.583862,417.578094 1968.328735,417.770813 
	C1999.983887,418.096283 2031.645874,418.005096 2063.302979,417.800018 
	C2081.007812,417.685333 2096.554932,411.470062 2109.268799,399.077026 
	C2123.824219,384.888947 2138.225830,370.533417 2152.378174,355.943939 
	C2164.585205,343.359619 2170.967041,328.067780 2170.989258,310.461853 
	C2171.074463,242.979141 2171.061768,175.496246 2170.994141,108.013519 
	C2170.978271,92.097000 2166.015625,77.546898 2155.168457,66.026215 
	C2139.879395,49.788078 2123.703369,34.374119 2107.672363,18.849607 
	C2097.465820,8.965235 2084.758545,3.800793 2071.000000,1.000000 
	C2129.687500,1.000000 2188.375000,1.000000 2247.591309,1.465355 
	C2248.126709,113.402069 2248.133057,224.873428 2248.139160,336.344788 
	C2248.139893,349.841309 2248.190918,363.338135 2248.114990,376.834229 
	C2248.088135,381.601776 2249.630371,385.370789 2253.186768,388.745422 
	C2261.161133,396.312653 2269.013184,404.034241 2276.502686,412.077026 
	C2280.490234,416.359161 2284.893066,417.939697 2290.605957,417.928955 
	C2350.757080,417.816071 2410.908203,417.858398 2471.059570,417.857849 
	C2472.982666,417.857849 2474.906006,417.857819 2476.640137,417.857819 
	C2476.640137,390.740814 2476.640137,364.346710 2476.640137,337.606750 
	C2427.151855,337.606750 2378.048340,337.606750 2328.525879,337.606750 
	C2328.525879,335.450592 2328.525879,333.639526 2328.525879,331.828430 
	C2328.525879,223.356293 2328.523682,114.884148 2328.545654,6.412006 
	C2328.545898,4.607973 2328.842041,2.804001 2329.000000,1.000000 
	C2371.020752,1.000000 2413.041748,1.000000 2455.591797,1.465301 
	C2456.121338,28.193390 2456.121338,54.456177 2456.121338,81.164597 
	C2493.344727,81.164597 2529.920410,81.164597 2566.897949,81.164597 
	C2566.897949,193.522293 2566.897949,305.430664 2566.897949,417.598450 
	C2593.706055,417.598450 2620.107666,417.598450 2647.045654,417.598450 
	C2647.045654,305.384003 2647.045654,193.350555 2647.045654,80.829544 
	C2684.126221,80.829544 2720.673340,80.829544 2757.537598,80.829544 
	C2757.537598,78.530907 2757.537842,76.718712 2757.537842,74.906517 
	C2757.537842,52.076553 2757.527344,29.246574 2757.557617,6.416642 
	C2757.560059,4.610899 2757.845703,2.805534 2758.000000,0.999997 
	C2771.687500,1.000000 2785.375000,1.000000 2799.720947,1.435766 
	C2800.379395,28.148947 2800.379395,54.426361 2800.379395,81.070526 
	C2855.555908,81.070526 2910.108398,81.070526 2965.352051,81.070526 
	C2964.212891,83.014778 2963.447754,84.414619 2962.596924,85.760414 
	C2909.825928,169.221497 2857.265137,252.817429 2804.034912,335.984772 
	C2796.063232,348.439911 2791.314209,360.555725 2792.776123,375.371216 
	C2793.353760,381.222260 2794.821045,385.852783 2799.003906,389.945526 
	C2807.447998,398.207916 2815.658203,406.709045 2823.979980,415.476715 
	C2826.110840,420.982880 2828.932129,422.569855 2833.916504,421.564636 
	C2835.527832,421.239563 2837.193115,421.023193 2838.833740,421.022614 
	C2911.952881,420.996429 2985.072510,420.905579 3058.190674,421.188354 
	C3063.734131,421.209778 3068.893799,420.958344 3074.000000,419.000000 
	C3074.000000,626.945251 3074.000000,834.890564 3074.000000,1043.000000 
	C2727.979004,1043.000000 2381.958252,1043.000000 2035.505981,1042.628662 
	C2035.232544,1041.785522 2035.374268,1041.307617 2035.550781,1040.842896 
	C2061.110352,973.496582 2086.695801,906.160034 2112.137695,838.769348 
	C2113.043945,836.369019 2113.419189,833.097351 2112.550049,830.795288 
	C2087.277588,763.874695 2061.795654,697.033386 2036.444946,630.142334 
	C2035.269409,627.040588 2033.815552,625.884094 2030.363281,625.908875 
	C2005.872803,626.084900 1981.380615,626.005371 1956.888916,626.007263 
	C1954.436768,626.007446 1951.984497,626.007263 1948.856323,626.007263 
	C1971.460449,682.242859 1993.820435,737.871033 2016.594971,794.530579 
	C1967.927856,794.530579 1920.237305,794.530579 1872.451904,794.530579 
	C1872.451904,821.519287 1872.451904,847.700073 1872.451904,874.319336 
	C1920.480225,874.319336 1968.052002,874.319336 2016.074951,874.319336 
	C2015.623779,875.916260 2015.415283,877.032593 2015.000854,878.066284 
	C2003.360107,907.095886 1991.672119,936.106628 1980.047974,965.142944 
	C1969.664185,991.081482 1959.346802,1017.046631 1949.000000,1043.000000 
	C1910.312378,1043.000000 1871.624878,1043.000000 1832.412109,1042.534180 
	C1831.887085,903.486084 1831.887085,764.903931 1831.887085,626.325500 
	C1804.648560,626.325500 1778.238892,626.325500 1751.325806,626.325500 
	C1751.325806,628.626892 1751.325928,630.593262 1751.325928,632.559631 
	C1751.327271,767.552429 1751.329712,902.545166 1751.316040,1037.537964 
	C1751.315918,1039.358643 1751.109985,1041.179321 1751.000000,1043.000000 
	C1706.645752,1043.000000 1662.291504,1043.000000 1617.741211,1042.735962 
	C1633.579224,1040.066040 1647.152100,1033.072388 1658.404419,1021.285583 
	C1667.723511,1011.524170 1677.401245,1002.102600 1687.013916,992.625610 
	C1691.142212,988.555542 1695.507324,984.725586 1699.248901,981.263794 
	C1679.792358,961.810669 1661.137817,943.159302 1641.472778,923.497559 
	C1640.817017,924.502930 1640.036011,926.269653 1638.767456,927.555420 
	C1628.935425,937.520142 1618.976440,947.359375 1609.130127,957.310059 
	C1605.548706,960.929443 1601.446289,962.903137 1596.262085,962.887451 
	C1573.596680,962.818787 1550.926880,963.077576 1528.269043,962.659851 
	C1524.339233,962.587402 1519.635254,960.747498 1516.710938,958.133240 
	C1508.026855,950.370361 1499.846069,942.004517 1491.930664,933.446899 
	C1489.650391,930.981689 1487.700562,927.076599 1487.683594,923.820740 
	C1487.379028,864.994934 1487.324463,806.167236 1487.507080,747.340759 
	C1487.518433,743.679443 1489.005005,739.207458 1491.390259,736.518860 
	C1499.120361,727.805664 1507.604248,719.762756 1515.766602,711.431091 
	C1519.334106,707.789551 1523.505615,706.067139 1528.706665,706.098328 
	C1550.871460,706.231140 1573.037964,706.229248 1595.203003,706.104492 
	C1600.918213,706.072388 1605.492432,708.004944 1609.465576,712.028198 
	C1619.419067,722.106934 1629.478394,732.081421 1639.509277,742.083618 
	C1640.629883,743.201111 1641.842163,744.226501 1642.308350,744.652039 
	C1661.346558,725.622681 1679.924561,707.053406 1698.693726,688.293030 
	C1698.545898,688.096313 1698.130981,687.374207 1697.559937,686.810364 
	C1683.096558,672.525879 1668.928223,657.923096 1654.046631,644.087585 
	C1640.882446,631.848755 1625.015991,625.790955 1606.747925,625.938416 
	C1576.584595,626.181946 1546.417847,626.021606 1516.252563,625.989380 
	C1499.592896,625.971558 1484.459106,630.825073 1472.277710,642.138611 
	C1456.781128,656.531067 1442.074585,671.776489 1427.091064,686.717957 
	C1413.939209,699.832703 1407.258179,715.883057 1407.206665,734.312317 
	C1407.020020,801.142151 1407.027954,867.973022 1407.215942,934.802795 
	C1407.262451,951.337830 1412.488281,966.439697 1423.934326,978.603821 
	C1438.316772,993.888611 1453.340942,1008.567566 1467.981689,1023.611694 
	C1476.107178,1031.960938 1485.853882,1037.386597 1496.976562,1040.495361 
	C1500.292114,1041.421997 1503.657471,1042.170166 1507.000000,1043.000000 
	C1446.979126,1043.000000 1386.958130,1043.000000 1326.326416,1042.548828 
	C1325.688232,1040.432373 1325.636963,1038.767212 1325.636963,1037.101929 
	C1325.633179,902.321899 1325.635010,767.541809 1325.621460,632.761780 
	C1325.621216,630.644531 1325.438965,628.527283 1325.340820,626.389587 
	C1298.487183,626.389587 1272.113525,626.389587 1245.329102,626.389587 
	C1245.329102,628.753540 1245.329102,630.726318 1245.329102,632.699097 
	C1245.328247,767.312561 1245.328979,901.926086 1245.312988,1036.539551 
	C1245.312744,1038.692993 1245.108765,1040.846558 1245.000000,1043.000000 
	C1214.645752,1043.000000 1184.291504,1043.000000 1153.468506,1042.531372 
	C1152.999756,903.494385 1152.999756,764.926086 1152.999756,626.425415 
	C1125.895386,626.425415 1099.515137,626.425415 1072.716309,626.425415 
	C1072.716309,710.544495 1072.716309,794.242737 1072.716309,877.941040 
	C1065.637817,867.252441 1059.385498,856.329163 1053.175171,845.381958 
	C1013.330872,775.147156 973.477966,704.917236 933.689758,634.650757 
	C930.316650,628.693848 925.657410,625.871582 918.694885,625.934509 
	C897.200439,626.128845 875.703064,625.999146 854.206848,626.014587 
	C852.600647,626.015747 850.994629,626.169617 849.000000,626.272522 
	C849.000000,765.445984 849.000000,904.223022 849.000000,1043.000000 
	C786.312439,1043.000000 723.624878,1043.000000 660.728760,1042.724365 
	C674.370422,1040.286011 686.902527,1034.999878 696.911499,1025.130737 
	C712.450378,1009.809143 727.860718,994.327576 742.688904,978.324036 
	C754.559875,965.512146 760.073059,949.920654 760.054565,932.252258 
	C759.949890,832.089233 760.003845,731.926086 760.003845,631.762939 
	C760.003845,629.991089 760.003845,628.219238 760.003845,626.310364 
	C732.778320,626.310364 706.212097,626.310364 679.128967,626.310364 
	C679.128967,628.415344 679.128906,630.206970 679.129028,631.998596 
	C679.130981,673.830444 679.134216,715.662292 679.134827,757.494141 
	C679.135681,812.158875 679.093811,866.823730 679.194580,921.488281 
	C679.205078,927.201660 677.551758,931.674500 673.285706,935.631531 
	C665.348633,942.993713 658.013977,951.016357 649.929443,958.202515 
	C647.197998,960.630310 642.986145,962.572693 639.400085,962.660217 
	C621.244934,963.103699 603.068665,963.069275 584.910828,962.683838 
	C581.414612,962.609558 577.226440,961.051575 574.634583,958.743835 
	C566.307007,951.328918 558.651550,943.164856 550.585510,935.447937 
	C546.592773,931.627808 544.909973,927.301941 544.916687,921.695984 
	C545.032043,825.366211 544.999268,729.036194 544.998962,632.706238 
	C544.998962,630.603577 544.998901,628.500977 544.998901,626.401794 
	C517.942078,626.401794 491.557831,626.401794 464.870117,626.401794 
	C464.870117,628.784607 464.870178,630.771973 464.870178,632.759277 
	C464.869263,732.589111 464.995544,832.419250 464.762146,932.248535 
	C464.714417,952.672913 471.982697,969.437256 486.222778,983.683228 
	C498.469940,995.935547 510.520264,1008.385803 522.580811,1020.822998 
	C531.818726,1030.349487 542.509705,1037.400635 555.461975,1040.764771 
	C558.309387,1041.504395 561.154053,1042.254639 564.000000,1043.000000 
	C501.645782,1043.000000 439.291534,1043.000000 376.410126,1042.534424 
	C375.882935,903.522156 375.882935,764.975586 375.882935,626.702698 
	C374.846680,626.308105 374.543396,626.091919 374.239746,626.091370 
	C350.251160,626.050171 326.262115,625.969543 302.274902,626.137695 
	C300.804382,626.147949 298.795898,627.814697 297.964417,629.248169 
	C268.231323,680.510010 238.610382,731.836792 208.969711,783.152161 
	C202.325668,794.654663 195.666306,806.148193 188.778122,818.053528 
	C187.836517,816.562500 187.202957,815.631592 186.641052,814.659241 
	C151.324402,753.544128 115.974655,692.447998 80.792412,631.255615 
	C78.514191,627.293152 76.057800,625.833374 71.470993,625.881714 
	C47.982853,626.129211 24.490730,625.998474 1.000000,626.000000 
z"/>
<path fill="#FE516E" opacity="1.000000" stroke="none" 
	d="
M1.000000,626.468628 
	C24.490730,625.998474 47.982853,626.129211 71.470993,625.881714 
	C76.057800,625.833374 78.514191,627.293152 80.792412,631.255615 
	C115.974655,692.447998 151.324402,753.544128 186.641052,814.659241 
	C187.202957,815.631592 187.836517,816.562500 188.778122,818.053528 
	C195.666306,806.148193 202.325668,794.654663 208.969711,783.152161 
	C238.610382,731.836792 268.231323,680.510010 297.964417,629.248169 
	C298.795898,627.814697 300.804382,626.147949 302.274902,626.137695 
	C326.262115,625.969543 350.251160,626.050171 374.239746,626.091370 
	C374.543396,626.091919 374.846680,626.308105 375.882935,626.702698 
	C375.882935,764.975586 375.882935,903.522156 375.941467,1042.534424 
	C349.645782,1043.000000 323.291534,1043.000000 296.410400,1042.534180 
	C295.883453,957.659424 295.883453,873.250366 295.883453,788.841309 
	C293.789032,790.108337 292.779144,791.705872 291.834412,793.341064 
	C269.839417,831.410828 247.812485,869.462219 225.903748,907.581604 
	C222.582596,913.360046 218.124939,916.174194 211.328400,916.065369 
	C196.499023,915.828003 181.657639,915.752136 166.832382,916.095215 
	C159.441071,916.266174 154.659836,913.386169 151.042953,907.059631 
	C131.784470,873.372925 112.339767,839.792725 92.947212,806.182678 
	C89.336525,799.924866 85.669701,793.699524 82.028786,787.459167 
	C81.685852,787.563232 81.342926,787.667236 81.000000,787.771240 
	C81.000000,872.847473 81.000000,957.923767 81.000000,1043.000000 
	C54.356819,1043.000000 27.713642,1043.000000 1.000000,1043.000000 
	C1.000000,904.312439 1.000000,765.624878 1.000000,626.468628 
z"/>
<path fill="#69015F" opacity="1.000000" stroke="none" 
	d="
M1091.739990,173.043533 
	C1091.768311,176.724960 1091.796509,180.406372 1091.364502,184.675095 
	C1090.604248,187.157913 1090.043701,189.053268 1090.042603,190.948975 
	C1089.998169,263.910980 1089.944824,336.873138 1090.131714,409.834686 
	C1090.145020,415.033478 1088.675171,416.185486 1083.712402,416.121704 
	C1062.393677,415.847778 1041.069458,416.005859 1019.747192,416.004272 
	C1013.008789,416.003754 1013.005493,416.000488 1013.005371,409.287476 
	C1013.003113,273.191650 1013.001648,137.095825 1013.000000,1.000000 
	C1038.020874,1.000000 1063.041870,1.000000 1088.519775,1.357514 
	C1125.720581,65.428520 1162.464233,129.142014 1199.373291,193.142288 
	C1200.149292,191.845963 1200.671631,191.000229 1201.168579,190.139801 
	C1229.833252,140.507736 1258.516357,90.886269 1287.145020,41.233353 
	C1294.848999,27.871622 1302.386230,14.413741 1310.000000,0.999991 
	C1335.354248,1.000000 1360.708496,1.000000 1386.531372,1.000000 
	C1386.952759,2.996634 1386.864380,4.993266 1386.864258,6.989902 
	C1386.857788,141.780334 1386.858276,276.570740 1386.858276,411.361176 
	C1386.858276,413.323639 1386.858276,415.286072 1386.858276,417.554596 
	C1360.001221,417.554596 1333.585083,417.554596 1306.664917,417.554596 
	C1306.664917,333.008240 1306.664917,248.441757 1306.664917,163.875275 
	C1306.298218,163.732101 1305.931396,163.588913 1305.564697,163.445740 
	C1304.700439,164.841293 1303.798096,166.214844 1302.977417,167.635574 
	C1281.027222,205.629929 1258.991821,243.575562 1237.229980,281.677521 
	C1233.377197,288.423248 1228.333008,291.278900 1220.653687,291.108948 
	C1206.332031,290.792053 1191.994629,290.830933 1177.670898,291.099396 
	C1170.359985,291.236359 1165.523682,288.379028 1161.888184,282.033234 
	C1139.827393,243.526169 1117.569824,205.131790 1095.370117,166.704346 
	C1094.488403,165.178192 1093.527100,163.697983 1092.104126,161.385910 
	C1091.980225,163.655487 1091.911011,164.923431 1091.561768,166.856293 
	C1091.434692,169.361969 1091.587280,171.202759 1091.739990,173.043533 
z"/>
<path fill="#FE516D" opacity="1.000000" stroke="none" 
	d="
M849.468628,1043.000000 
	C849.000000,904.223022 849.000000,765.445984 849.000000,626.272522 
	C850.994629,626.169617 852.600647,626.015747 854.206848,626.014587 
	C875.703064,625.999146 897.200439,626.128845 918.694885,625.934509 
	C925.657410,625.871582 930.316650,628.693848 933.689758,634.650757 
	C973.477966,704.917236 1013.330872,775.147156 1053.175171,845.381958 
	C1059.385498,856.329163 1065.637817,867.252441 1072.716309,877.941040 
	C1072.716309,794.242737 1072.716309,710.544495 1072.716309,626.425415 
	C1099.515137,626.425415 1125.895386,626.425415 1152.999756,626.425415 
	C1152.999756,764.926086 1152.999756,903.494385 1152.999878,1042.531372 
	C1127.979126,1043.000000 1102.958130,1043.000000 1077.281006,1042.720093 
	C1073.890259,1039.896851 1070.337280,1037.826660 1068.550415,1034.735596 
	C1053.888794,1009.372009 1039.558594,983.816956 1025.122314,958.323059 
	C994.445740,904.149353 963.767212,849.976807 933.081970,795.807983 
	C932.094971,794.065674 931.026489,792.369507 929.995972,790.651855 
	C929.704163,790.815063 929.412415,790.978271 929.120605,791.141541 
	C929.120605,792.963745 929.120483,794.786011 929.120544,796.608215 
	C929.122559,861.747803 929.133423,926.887329 929.120972,992.026917 
	C929.117737,1009.017944 929.042297,1026.009033 929.000000,1043.000000 
	C902.645752,1043.000000 876.291565,1043.000000 849.468628,1043.000000 
z"/>
<path fill="#69015F" opacity="1.000000" stroke="none" 
	d="
M2070.531250,1.000000 
	C2084.758545,3.800793 2097.465820,8.965235 2107.672363,18.849607 
	C2123.703369,34.374119 2139.879395,49.788078 2155.168457,66.026215 
	C2166.015625,77.546898 2170.978271,92.097000 2170.994141,108.013519 
	C2171.061768,175.496246 2171.074463,242.979141 2170.989258,310.461853 
	C2170.967041,328.067780 2164.585205,343.359619 2152.378174,355.943939 
	C2138.225830,370.533417 2123.824219,384.888947 2109.268799,399.077026 
	C2096.554932,411.470062 2081.007812,417.685333 2063.302979,417.800018 
	C2031.645874,418.005096 1999.983887,418.096283 1968.328735,417.770813 
	C1949.583862,417.578094 1933.418945,410.885681 1920.275146,396.997162 
	C1907.910889,383.932556 1895.191528,371.192200 1882.336792,358.606934 
	C1868.401367,344.963531 1861.078125,328.516235 1861.048218,309.133240 
	C1860.944214,241.818939 1860.958740,174.503738 1861.225220,107.190041 
	C1861.293213,90.020912 1867.828857,75.017853 1879.841309,62.725826 
	C1894.046509,48.190067 1908.491211,33.885071 1922.981445,19.631979 
	C1933.130493,9.648984 1945.461304,3.832271 1959.744507,1.282328 
	C1996.687500,1.000000 2033.375000,1.000000 2070.531250,1.000000 
M1941.168457,255.499985 
	C1941.167847,268.991730 1941.301392,282.485443 1941.101685,295.974274 
	C1941.019409,301.533173 1942.841797,305.892120 1946.811768,309.731293 
	C1954.473755,317.140717 1962.029297,324.667480 1969.423218,332.343750 
	C1973.164551,336.227875 1977.518677,337.879333 1982.789917,337.867737 
	C2004.942993,337.819000 2027.096191,337.834137 2049.249268,337.849426 
	C2054.476318,337.853027 2058.987061,336.289917 2062.734131,332.478088 
	C2070.207031,324.876343 2077.814453,317.407471 2085.309570,309.827637 
	C2088.796387,306.301514 2091.038818,302.285797 2091.032227,297.023224 
	C2090.958252,238.725616 2091.073975,180.427444 2090.781494,122.131256 
	C2090.761963,118.239128 2088.716553,113.610115 2086.120361,110.620934 
	C2078.929199,102.341728 2070.939209,94.757263 2063.282471,86.881256 
	C2059.372314,82.859024 2054.767090,80.919807 2049.031250,80.958321 
	C2027.045776,81.105949 2005.057495,81.137863 1983.072754,80.938530 
	C1977.279907,80.886017 1972.796997,82.873558 1968.899170,86.920822 
	C1961.623779,94.475090 1954.448486,102.140335 1946.876221,109.388184 
	C1942.671875,113.412338 1941.093750,117.893257 1941.108398,123.580170 
	C1941.221069,167.219864 1941.169189,210.859985 1941.168457,255.499985 
z"/>
<path fill="#69015F" opacity="1.000000" stroke="none" 
	d="
M303.531342,1.000000 
	C303.952118,2.996852 303.862457,4.993703 303.862366,6.990558 
	C303.855774,141.800552 303.856415,276.610535 303.856384,411.420532 
	C303.856384,413.378754 303.856415,415.336975 303.856415,417.576294 
	C276.966003,417.576294 250.547516,417.576294 223.564163,417.576294 
	C223.564163,361.812805 223.564163,306.084900 223.564163,250.107605 
	C175.896515,250.107605 128.791611,250.107605 81.199852,250.107605 
	C81.199852,305.767761 81.199852,361.499939 81.199852,417.877411 
	C54.455460,417.877411 28.192965,417.877411 1.465235,417.938721 
	C1.000000,279.122406 1.000000,140.244827 1.000000,1.000000 
	C27.353090,1.000000 53.707886,1.000000 80.539200,1.468601 
	C81.015724,57.673344 81.015724,113.409485 81.015724,169.144470 
	C128.785538,169.144470 175.983994,169.144470 223.535538,169.144470 
	C223.535538,166.453537 223.535583,164.140930 223.535522,161.828323 
	C223.534302,110.189476 223.527893,58.550621 223.551620,6.911783 
	C223.552521,4.941121 223.843964,2.970592 224.000000,1.000000 
	C250.354233,1.000000 276.708466,1.000000 303.531342,1.000000 
z"/>
<path fill="#69015F" opacity="1.000000" stroke="none" 
	d="
M1701.967529,250.018738 
	C1660.328369,249.964783 1618.689209,249.910034 1577.050049,249.857880 
	C1571.415039,249.850815 1565.780029,249.856903 1559.579590,249.856903 
	C1559.579590,305.937500 1559.579590,361.627045 1559.579590,417.588501 
	C1532.612549,417.588501 1506.217285,417.588501 1479.125854,417.588501 
	C1479.125854,278.961609 1479.125854,140.445847 1479.062988,1.465046 
	C1505.354248,1.000000 1531.708496,1.000000 1558.729004,1.432810 
	C1559.395386,57.576237 1559.395386,113.286850 1559.395386,169.251297 
	C1561.133057,169.373779 1562.260986,169.522491 1563.388916,169.522781 
	C1608.500122,169.534485 1653.611328,169.536957 1698.722534,169.508255 
	C1699.835571,169.507553 1700.948364,169.142502 1702.353760,168.656799 
	C1702.767456,166.885788 1702.994263,165.405365 1702.994629,163.924881 
	C1703.009644,109.616585 1703.003296,55.308292 1703.000000,1.000000 
	C1728.687622,1.000000 1754.375122,1.000000 1780.529297,1.466038 
	C1780.986328,140.264038 1780.976685,278.596008 1780.636719,416.953918 
	C1779.864258,416.957001 1779.421997,416.934082 1778.673340,416.632568 
	C1777.720459,416.239014 1777.074219,416.024078 1776.427612,416.023560 
	C1753.863037,416.004944 1731.298584,415.992218 1708.734131,416.043945 
	C1707.495239,416.046783 1706.257568,416.610107 1704.690918,416.944916 
	C1703.923950,416.962036 1703.485352,416.946747 1703.038574,416.467194 
	C1703.023560,362.725830 1703.028564,309.448761 1702.966309,256.171753 
	C1702.963867,254.120346 1702.315063,252.069717 1701.967529,250.018738 
z"/>
<path fill="#69005F" opacity="1.000000" stroke="none" 
	d="
M429.571289,417.364746 
	C429.571289,417.364746 429.219666,417.312500 429.040344,417.002930 
	C428.582336,416.744415 428.303680,416.795471 428.025024,416.846497 
	C426.272827,415.690002 424.279877,414.779053 422.808289,413.336334 
	C414.482941,405.174408 406.393158,396.770020 397.988495,388.692322 
	C394.322418,385.168793 392.907806,381.168365 392.943085,376.226257 
	C393.051270,361.069336 392.983612,345.911133 392.983612,330.753448 
	C392.983612,235.309921 393.019196,139.866348 392.903320,44.422966 
	C392.895538,38.018112 394.460419,33.026138 399.393066,28.559870 
	C407.285553,21.413616 414.499542,13.522643 422.140198,6.090281 
	C424.001526,4.279699 426.406952,3.028527 428.781128,1.260077 
	C504.354218,1.000000 579.708435,1.000000 655.531372,1.000000 
	C656.000000,27.466393 656.000000,53.932785 656.000000,80.902008 
	C595.090515,80.902008 534.392822,80.902008 473.430542,80.902008 
	C473.430542,110.491577 473.430542,139.579575 473.430542,169.223633 
	C526.082825,169.223633 578.784729,169.223633 631.757080,169.223633 
	C631.757080,196.215210 631.757080,222.653809 631.757080,249.645416 
	C579.149414,249.645416 526.453186,249.645416 473.491669,249.645416 
	C473.355804,251.452332 473.176453,252.731934 473.175659,254.011627 
	C473.159485,280.499115 473.159882,306.986572 473.174774,333.474060 
	C473.175537,334.796875 473.337311,336.119629 474.021210,338.029053 
	C476.595612,338.745941 478.572906,338.989197 480.550262,338.989929 
	C536.165588,339.009918 591.780945,339.005096 647.396301,339.005219 
	C655.187378,339.005249 655.157959,339.003204 654.110718,346.580231 
	C653.907166,348.053284 654.008728,349.571655 654.008362,351.069122 
	C654.003113,370.551147 654.006226,390.033142 654.004028,409.515167 
	C654.003296,415.998016 653.999146,416.002838 647.538818,416.002930 
	C577.270325,416.004120 507.001862,415.996613 436.733429,416.040802 
	C434.819000,416.042023 432.904877,416.595184 430.626709,416.982117 
	C430.032257,417.170441 429.801788,417.267578 429.571289,417.364746 
z"/>
<path fill="#FE516E" opacity="1.000000" stroke="none" 
	d="
M564.468628,1043.000000 
	C561.154053,1042.254639 558.309387,1041.504395 555.461975,1040.764771 
	C542.509705,1037.400635 531.818726,1030.349487 522.580811,1020.822998 
	C510.520264,1008.385803 498.469940,995.935547 486.222778,983.683228 
	C471.982697,969.437256 464.714417,952.672913 464.762146,932.248535 
	C464.995544,832.419250 464.869263,732.589111 464.870178,632.759277 
	C464.870178,630.771973 464.870117,628.784607 464.870117,626.401794 
	C491.557831,626.401794 517.942078,626.401794 544.998901,626.401794 
	C544.998901,628.500977 544.998962,630.603577 544.998962,632.706238 
	C544.999268,729.036194 545.032043,825.366211 544.916687,921.695984 
	C544.909973,927.301941 546.592773,931.627808 550.585510,935.447937 
	C558.651550,943.164856 566.307007,951.328918 574.634583,958.743835 
	C577.226440,961.051575 581.414612,962.609558 584.910828,962.683838 
	C603.068665,963.069275 621.244934,963.103699 639.400085,962.660217 
	C642.986145,962.572693 647.197998,960.630310 649.929443,958.202515 
	C658.013977,951.016357 665.348633,942.993713 673.285706,935.631531 
	C677.551758,931.674500 679.205078,927.201660 679.194580,921.488281 
	C679.093811,866.823730 679.135681,812.158875 679.134827,757.494141 
	C679.134216,715.662292 679.130981,673.830444 679.129028,631.998596 
	C679.128906,630.206970 679.128967,628.415344 679.128967,626.310364 
	C706.212097,626.310364 732.778320,626.310364 760.003845,626.310364 
	C760.003845,628.219238 760.003845,629.991089 760.003845,631.762939 
	C760.003845,731.926086 759.949890,832.089233 760.054565,932.252258 
	C760.073059,949.920654 754.559875,965.512146 742.688904,978.324036 
	C727.860718,994.327576 712.450378,1009.809143 696.911499,1025.130737 
	C686.902527,1034.999878 674.370422,1040.286011 660.260132,1042.724365 
	C628.312439,1043.000000 596.624878,1043.000000 564.468628,1043.000000 
z"/>
<path fill="#69015F" opacity="1.000000" stroke="none" 
	d="
M2823.965088,415.111664 
	C2815.658203,406.709045 2807.447998,398.207916 2799.003906,389.945526 
	C2794.821045,385.852783 2793.353760,381.222260 2792.776123,375.371216 
	C2791.314209,360.555725 2796.063232,348.439911 2804.034912,335.984772 
	C2857.265137,252.817429 2909.825928,169.221497 2962.596924,85.760414 
	C2963.447754,84.414619 2964.212891,83.014778 2965.352051,81.070526 
	C2910.108398,81.070526 2855.555908,81.070526 2800.379395,81.070526 
	C2800.379395,54.426361 2800.379395,28.148947 2800.189697,1.435766 
	C2879.020752,1.000000 2958.041748,1.000000 3037.677246,1.309135 
	C3040.431641,3.117165 3042.813721,4.365407 3044.667969,6.159461 
	C3051.554688,12.823531 3058.474365,19.477043 3064.962891,26.520472 
	C3068.418457,30.272032 3071.015381,34.814495 3074.000000,39.000000 
	C3074.000000,46.020947 3074.000000,53.041897 3073.697754,60.687664 
	C3015.215576,153.247482 2957.035400,245.182465 2898.305664,337.985840 
	C2956.585938,337.985840 3013.755859,337.985840 3071.374268,337.985840 
	C3071.374268,343.635620 3071.374268,348.774139 3071.281738,354.379150 
	C3071.231445,375.580048 3071.273926,396.314423 3071.162109,417.255127 
	C3070.943115,417.620361 3070.878174,417.779297 3070.357422,417.901855 
	C2991.545898,417.862335 2913.190186,417.895844 2834.834473,417.739685 
	C2831.209717,417.732483 2827.588135,416.026459 2823.965088,415.111664 
z"/>
<path fill="#FE516E" opacity="1.000000" stroke="none" 
	d="
M1507.468628,1043.000000 
	C1503.657471,1042.170166 1500.292114,1041.421997 1496.976562,1040.495361 
	C1485.853882,1037.386597 1476.107178,1031.960938 1467.981689,1023.611694 
	C1453.340942,1008.567566 1438.316772,993.888611 1423.934326,978.603821 
	C1412.488281,966.439697 1407.262451,951.337830 1407.215942,934.802795 
	C1407.027954,867.973022 1407.020020,801.142151 1407.206665,734.312317 
	C1407.258179,715.883057 1413.939209,699.832703 1427.091064,686.717957 
	C1442.074585,671.776489 1456.781128,656.531067 1472.277710,642.138611 
	C1484.459106,630.825073 1499.592896,625.971558 1516.252563,625.989380 
	C1546.417847,626.021606 1576.584595,626.181946 1606.747925,625.938416 
	C1625.015991,625.790955 1640.882446,631.848755 1654.046631,644.087585 
	C1668.928223,657.923096 1683.096558,672.525879 1697.559937,686.810364 
	C1698.130981,687.374207 1698.545898,688.096313 1698.693726,688.293030 
	C1679.924561,707.053406 1661.346558,725.622681 1642.308350,744.652039 
	C1641.842163,744.226501 1640.629883,743.201111 1639.509277,742.083618 
	C1629.478394,732.081421 1619.419067,722.106934 1609.465576,712.028198 
	C1605.492432,708.004944 1600.918213,706.072388 1595.203003,706.104492 
	C1573.037964,706.229248 1550.871460,706.231140 1528.706665,706.098328 
	C1523.505615,706.067139 1519.334106,707.789551 1515.766602,711.431091 
	C1507.604248,719.762756 1499.120361,727.805664 1491.390259,736.518860 
	C1489.005005,739.207458 1487.518433,743.679443 1487.507080,747.340759 
	C1487.324463,806.167236 1487.379028,864.994934 1487.683594,923.820740 
	C1487.700562,927.076599 1489.650391,930.981689 1491.930664,933.446899 
	C1499.846069,942.004517 1508.026855,950.370361 1516.710938,958.133240 
	C1519.635254,960.747498 1524.339233,962.587402 1528.269043,962.659851 
	C1550.926880,963.077576 1573.596680,962.818787 1596.262085,962.887451 
	C1601.446289,962.903137 1605.548706,960.929443 1609.130127,957.310059 
	C1618.976440,947.359375 1628.935425,937.520142 1638.767456,927.555420 
	C1640.036011,926.269653 1640.817017,924.502930 1641.472778,923.497559 
	C1661.137817,943.159302 1679.792358,961.810669 1699.248901,981.263794 
	C1695.507324,984.725586 1691.142212,988.555542 1687.013916,992.625610 
	C1677.401245,1002.102600 1667.723511,1011.524170 1658.404419,1021.285583 
	C1647.152100,1033.072388 1633.579224,1040.066040 1617.272461,1042.735962 
	C1580.645752,1043.000000 1544.291504,1043.000000 1507.468628,1043.000000 
z"/>
<path fill="#69015F" opacity="1.000000" stroke="none" 
	d="
M2757.531250,0.999997 
	C2757.845703,2.805534 2757.560059,4.610899 2757.557617,6.416642 
	C2757.527344,29.246574 2757.537842,52.076553 2757.537842,74.906517 
	C2757.537842,76.718712 2757.537598,78.530907 2757.537598,80.829544 
	C2720.673340,80.829544 2684.126221,80.829544 2647.045654,80.829544 
	C2647.045654,193.350555 2647.045654,305.384003 2647.045654,417.598450 
	C2620.107666,417.598450 2593.706055,417.598450 2566.897949,417.598450 
	C2566.897949,305.430664 2566.897949,193.522293 2566.897949,81.164597 
	C2529.920410,81.164597 2493.344727,81.164597 2456.121338,81.164597 
	C2456.121338,54.456177 2456.121338,28.193390 2456.060547,1.465301 
	C2556.354248,1.000000 2656.708252,1.000000 2757.531250,0.999997 
z"/>
<path fill="#FE516E" opacity="1.000000" stroke="none" 
	d="
M1949.468750,1043.000000 
	C1959.346802,1017.046631 1969.664185,991.081482 1980.047974,965.142944 
	C1991.672119,936.106628 2003.360107,907.095886 2015.000854,878.066284 
	C2015.415283,877.032593 2015.623779,875.916260 2016.074951,874.319336 
	C1968.052002,874.319336 1920.480225,874.319336 1872.451904,874.319336 
	C1872.451904,847.700073 1872.451904,821.519287 1872.451904,794.530579 
	C1920.237305,794.530579 1967.927856,794.530579 2016.594971,794.530579 
	C1993.820435,737.871033 1971.460449,682.242859 1948.856323,626.007263 
	C1951.984497,626.007263 1954.436768,626.007446 1956.888916,626.007263 
	C1981.380615,626.005371 2005.872803,626.084900 2030.363281,625.908875 
	C2033.815552,625.884094 2035.269409,627.040588 2036.444946,630.142334 
	C2061.795654,697.033386 2087.277588,763.874695 2112.550049,830.795288 
	C2113.419189,833.097351 2113.043945,836.369019 2112.137695,838.769348 
	C2086.695801,906.160034 2061.110352,973.496582 2035.550781,1040.842896 
	C2035.374268,1041.307617 2035.232544,1041.785522 2035.037354,1042.628662 
	C2006.645752,1043.000000 1978.291504,1043.000000 1949.468750,1043.000000 
z"/>
<path fill="#69015F" opacity="1.000000" stroke="none" 
	d="
M2328.531250,1.000000 
	C2328.842041,2.804001 2328.545898,4.607973 2328.545654,6.412006 
	C2328.523682,114.884148 2328.525879,223.356293 2328.525879,331.828430 
	C2328.525879,333.639526 2328.525879,335.450592 2328.525879,337.606750 
	C2378.048340,337.606750 2427.151855,337.606750 2476.640137,337.606750 
	C2476.640137,364.346710 2476.640137,390.740814 2476.640137,417.857819 
	C2474.906006,417.857819 2472.982666,417.857849 2471.059570,417.857849 
	C2410.908203,417.858398 2350.757080,417.816071 2290.605957,417.928955 
	C2284.893066,417.939697 2280.490234,416.359161 2276.502686,412.077026 
	C2269.013184,404.034241 2261.161133,396.312653 2253.186768,388.745422 
	C2249.630371,385.370789 2248.088135,381.601776 2248.114990,376.834229 
	C2248.190918,363.338135 2248.139893,349.841309 2248.139160,336.344788 
	C2248.133057,224.873428 2248.126709,113.402069 2248.060059,1.465355 
	C2274.687500,1.000000 2301.375000,1.000000 2328.531250,1.000000 
z"/>
<path fill="#69015F" opacity="1.000000" stroke="none" 
	d="
M816.531372,1.000000 
	C816.950623,2.663082 816.858032,4.326161 816.857910,5.989247 
	C816.851074,114.616592 816.851746,223.243927 816.851746,331.871277 
	C816.851746,333.675232 816.851746,335.479218 816.851746,337.676086 
	C865.326233,337.676086 913.402039,337.676086 961.820862,337.676086 
	C961.820862,364.465454 961.820862,390.854370 961.820862,417.858734 
	C960.062927,417.858734 958.289917,417.858765 956.516846,417.858765 
	C897.204956,417.858459 837.893066,417.821838 778.581360,417.919586 
	C773.225281,417.928436 768.983215,416.394501 765.236084,412.504333 
	C757.493530,404.466309 749.562622,396.605042 741.560852,388.823669 
	C738.231506,385.585999 736.775574,381.956482 736.778320,377.291534 
	C736.852966,252.170288 736.847168,127.048988 736.927490,1.463848 
	C763.354248,1.000000 789.708435,1.000000 816.531372,1.000000 
z"/>
<path fill="#FFFEFE" opacity="1.000000" stroke="none" 
	d="
M81.468658,1043.000000 
	C81.000000,957.923767 81.000000,872.847473 81.000000,787.771240 
	C81.342926,787.667236 81.685852,787.563232 82.028786,787.459167 
	C85.669701,793.699524 89.336525,799.924866 92.947212,806.182678 
	C112.339767,839.792725 131.784470,873.372925 151.042953,907.059631 
	C154.659836,913.386169 159.441071,916.266174 166.832382,916.095215 
	C181.657639,915.752136 196.499023,915.828003 211.328400,916.065369 
	C218.124939,916.174194 222.582596,913.360046 225.903748,907.581604 
	C247.812485,869.462219 269.839417,831.410828 291.834412,793.341064 
	C292.779144,791.705872 293.789032,790.108337 295.883453,788.841309 
	C295.883453,873.250366 295.883453,957.659424 295.941711,1042.534180 
	C224.645767,1043.000000 153.291550,1043.000000 81.468658,1043.000000 
z"/>
<path fill="#FE526F" opacity="1.000000" stroke="none" 
	d="
M1751.468628,1043.000000 
	C1751.109985,1041.179321 1751.315918,1039.358643 1751.316040,1037.537964 
	C1751.329712,902.545166 1751.327271,767.552429 1751.325928,632.559631 
	C1751.325928,630.593262 1751.325806,628.626892 1751.325806,626.325500 
	C1778.238892,626.325500 1804.648560,626.325500 1831.887085,626.325500 
	C1831.887085,764.903931 1831.887085,903.486084 1831.943604,1042.534180 
	C1805.312378,1043.000000 1778.624878,1043.000000 1751.468628,1043.000000 
z"/>
<path fill="#FE526E" opacity="1.000000" stroke="none" 
	d="
M1245.468628,1043.000000 
	C1245.108765,1040.846558 1245.312744,1038.692993 1245.312988,1036.539551 
	C1245.328979,901.926086 1245.328247,767.312561 1245.329102,632.699097 
	C1245.329102,630.726318 1245.329102,628.753540 1245.329102,626.389587 
	C1272.113525,626.389587 1298.487183,626.389587 1325.340820,626.389587 
	C1325.438965,628.527283 1325.621216,630.644531 1325.621460,632.761780 
	C1325.635010,767.541809 1325.633179,902.321899 1325.636963,1037.101929 
	C1325.636963,1038.767212 1325.688232,1040.432373 1325.857666,1042.548828 
	C1299.312378,1043.000000 1272.624878,1043.000000 1245.468628,1043.000000 
z"/>
<path fill="#FEFDFE" opacity="1.000000" stroke="none" 
	d="
M223.531342,1.000000 
	C223.843964,2.970592 223.552521,4.941121 223.551620,6.911783 
	C223.527893,58.550621 223.534302,110.189476 223.535522,161.828323 
	C223.535583,164.140930 223.535538,166.453537 223.535538,169.144470 
	C175.983994,169.144470 128.785538,169.144470 81.015724,169.144470 
	C81.015724,113.409485 81.015724,57.673344 81.007858,1.468601 
	C128.354233,1.000000 175.708450,1.000000 223.531342,1.000000 
z"/>
<path fill="#FFFEFE" opacity="1.000000" stroke="none" 
	d="
M1702.061279,168.947372 
	C1700.948364,169.142502 1699.835571,169.507553 1698.722534,169.508255 
	C1653.611328,169.536957 1608.500122,169.534485 1563.388916,169.522781 
	C1562.260986,169.522491 1561.133057,169.373779 1559.395386,169.251297 
	C1559.395386,113.286850 1559.395386,57.576237 1559.197754,1.432810 
	C1606.354248,1.000000 1653.708496,1.000000 1701.524780,1.468618 
	C1702.011597,57.607281 1702.036377,113.277328 1702.061279,168.947372 
z"/>
<path fill="#FFFEFF" opacity="1.000000" stroke="none" 
	d="
M1309.531372,0.999991 
	C1302.386230,14.413741 1294.848999,27.871622 1287.145020,41.233353 
	C1258.516357,90.886269 1229.833252,140.507736 1201.168579,190.139801 
	C1200.671631,191.000229 1200.149292,191.845963 1199.373291,193.142288 
	C1162.464233,129.142014 1125.720581,65.428520 1088.988525,1.357514 
	C1162.354248,1.000000 1235.708496,1.000000 1309.531372,0.999991 
z"/>
<path fill="#FFFFFF" opacity="1.000000" stroke="none" 
	d="
M3074.000000,97.000000 
	C3074.000000,176.020889 3074.000000,255.041794 3073.576660,334.521423 
	C3070.534668,334.653412 3067.917969,334.064423 3065.296875,334.044403 
	C3052.475098,333.946381 3039.652100,334.000031 3026.829590,334.000000 
	C2991.359375,333.999939 2955.888916,333.958221 2920.419189,334.063751 
	C2916.832520,334.074402 2914.368896,333.043793 2914.148682,329.386993 
	C2913.961914,326.279480 2914.090820,323.180145 2918.766113,322.736725 
	C2921.745361,322.454132 2924.856201,321.136841 2927.394287,319.490906 
	C2929.058838,318.411224 2930.494629,316.026093 2930.812012,314.031311 
	C2931.366943,310.543549 2930.803711,306.895050 2931.026611,303.333832 
	C2931.578857,294.518646 2935.059814,291.093475 2943.887939,289.510284 
	C2945.014648,289.308289 2946.274902,286.788025 2946.478027,285.213409 
	C2946.787598,282.810944 2945.880615,280.262970 2946.114014,277.836884 
	C2946.560303,273.203400 2949.626953,271.772034 2954.104492,273.299866 
	C2955.598145,273.809540 2958.675781,273.688873 2958.991455,272.966400 
	C2960.641846,269.186676 2962.179199,265.193146 2962.719727,261.135895 
	C2963.362793,256.305908 2962.775146,251.322876 2963.131592,246.436203 
	C2963.218262,245.244858 2964.698242,243.560257 2965.896729,243.148178 
	C2970.970459,241.404099 2976.229980,240.171310 2976.852295,233.416733 
	C2977.031738,231.472382 2977.378906,229.448013 2978.167725,227.693451 
	C2978.594482,226.743607 2980.094727,225.743271 2981.145996,225.703415 
	C2984.837402,225.563538 2988.552002,225.998734 2992.239502,225.825119 
	C2993.166992,225.781433 2994.611572,224.370224 2994.753906,223.427185 
	C2994.900635,222.453903 2993.972168,220.587906 2993.129395,220.319427 
	C2988.952393,218.988647 2989.225098,216.042999 2991.292236,213.794296 
	C2994.309082,210.512054 2994.352783,207.909454 2991.412109,205.460480 
	C2993.090576,201.857834 2994.588867,198.642090 2996.120605,195.354660 
	C2997.855225,195.004547 2999.807617,194.678162 3001.725830,194.211212 
	C3008.751465,192.501099 3009.885254,190.829697 3008.948486,183.731232 
	C3008.168213,177.819366 3009.890869,175.136505 3015.356934,172.965912 
	C3017.095947,172.275375 3019.210449,171.178696 3019.990723,169.667694 
	C3022.804199,164.219070 3025.968262,158.738083 3025.920898,152.353378 
	C3025.893311,148.657867 3026.861572,147.005463 3030.940674,146.846008 
	C3035.715088,146.659363 3044.222168,138.706818 3042.595947,136.220123 
	C3039.660889,131.731949 3042.025391,127.755775 3041.999756,123.577415 
	C3041.968506,118.463219 3043.798828,114.769089 3049.460938,114.362701 
	C3052.639648,114.134560 3054.543457,112.945717 3055.373779,109.620590 
	C3056.305664,105.887909 3057.849854,102.308151 3059.529053,97.517609 
	C3063.800537,97.364822 3068.900146,97.182411 3074.000000,97.000000 
z"/>
<path fill="#FFFEFE" opacity="1.000000" stroke="none" 
	d="
M929.468628,1043.000000 
	C929.042297,1026.009033 929.117737,1009.017944 929.120972,992.026917 
	C929.133423,926.887329 929.122559,861.747803 929.120544,796.608215 
	C929.120483,794.786011 929.120605,792.963745 929.120605,791.141541 
	C929.412415,790.978271 929.704163,790.815063 929.995972,790.651855 
	C931.026489,792.369507 932.094971,794.065674 933.081970,795.807983 
	C963.767212,849.976807 994.445740,904.149353 1025.122314,958.323059 
	C1039.558594,983.816956 1053.888794,1009.372009 1068.550415,1034.735596 
	C1070.337280,1037.826660 1073.890259,1039.896851 1076.812378,1042.720093 
	C1027.979126,1043.000000 978.958191,1043.000000 929.468628,1043.000000 
z"/>
<path fill="#FFFFFF" opacity="1.000000" stroke="none" 
	d="
M3074.000000,96.531342 
	C3068.900146,97.182411 3063.800537,97.364822 3059.529053,97.517609 
	C3057.849854,102.308151 3056.305664,105.887909 3055.373779,109.620590 
	C3054.543457,112.945717 3052.639648,114.134560 3049.460938,114.362701 
	C3043.798828,114.769089 3041.968506,118.463219 3041.999756,123.577415 
	C3042.025391,127.755775 3039.660889,131.731949 3042.595947,136.220123 
	C3044.222168,138.706818 3035.715088,146.659363 3030.940674,146.846008 
	C3026.861572,147.005463 3025.893311,148.657867 3025.920898,152.353378 
	C3025.968262,158.738083 3022.804199,164.219070 3019.990723,169.667694 
	C3019.210449,171.178696 3017.095947,172.275375 3015.356934,172.965912 
	C3009.890869,175.136505 3008.168213,177.819366 3008.948486,183.731232 
	C3009.885254,190.829697 3008.751465,192.501099 3001.725830,194.211212 
	C2999.807617,194.678162 2997.855225,195.004547 2996.120605,195.354660 
	C2994.588867,198.642090 2993.090576,201.857834 2991.412109,205.460480 
	C2994.352783,207.909454 2994.309082,210.512054 2991.292236,213.794296 
	C2989.225098,216.042999 2988.952393,218.988647 2993.129395,220.319427 
	C2993.972168,220.587906 2994.900635,222.453903 2994.753906,223.427185 
	C2994.611572,224.370224 2993.166992,225.781433 2992.239502,225.825119 
	C2988.552002,225.998734 2984.837402,225.563538 2981.145996,225.703415 
	C2980.094727,225.743271 2978.594482,226.743607 2978.167725,227.693451 
	C2977.378906,229.448013 2977.031738,231.472382 2976.852295,233.416733 
	C2976.229980,240.171310 2970.970459,241.404099 2965.896729,243.148178 
	C2964.698242,243.560257 2963.218262,245.244858 2963.131592,246.436203 
	C2962.775146,251.322876 2963.362793,256.305908 2962.719727,261.135895 
	C2962.179199,265.193146 2960.641846,269.186676 2958.991455,272.966400 
	C2958.675781,273.688873 2955.598145,273.809540 2954.104492,273.299866 
	C2949.626953,271.772034 2946.560303,273.203400 2946.114014,277.836884 
	C2945.880615,280.262970 2946.787598,282.810944 2946.478027,285.213409 
	C2946.274902,286.788025 2945.014648,289.308289 2943.887939,289.510284 
	C2935.059814,291.093475 2931.578857,294.518646 2931.026611,303.333832 
	C2930.803711,306.895050 2931.366943,310.543549 2930.812012,314.031311 
	C2930.494629,316.026093 2929.058838,318.411224 2927.394287,319.490906 
	C2924.856201,321.136841 2921.745361,322.454132 2918.766113,322.736725 
	C2914.090820,323.180145 2913.961914,326.279480 2914.148682,329.386993 
	C2914.368896,333.043793 2916.832520,334.074402 2920.419189,334.063751 
	C2955.888916,333.958221 2991.359375,333.999939 3026.829590,334.000000 
	C3039.652100,334.000031 3052.475098,333.946381 3065.296875,334.044403 
	C3067.917969,334.064423 3070.534668,334.653412 3073.576660,334.990051 
	C3074.000000,336.066681 3074.000000,337.133331 3073.604492,338.689819 
	C3072.805908,340.665863 3072.194336,342.131165 3072.042236,343.642670 
	C3071.698975,347.053864 3071.582764,350.487885 3071.374268,353.912628 
	C3071.374268,348.774139 3071.374268,343.635620 3071.374268,337.985840 
	C3013.755859,337.985840 2956.585938,337.985840 2898.305664,337.985840 
	C2957.035400,245.182465 3015.215576,153.247482 3073.697754,61.156242 
	C3074.000000,72.687561 3074.000000,84.375122 3074.000000,96.531342 
z"/>
<path fill="#590A54" opacity="1.000000" stroke="none" 
	d="
M1012.750000,1.000000 
	C1013.001648,137.095825 1013.003113,273.191650 1013.005371,409.287476 
	C1013.005493,416.000488 1013.008789,416.003754 1019.747192,416.004272 
	C1041.069458,416.005859 1062.393677,415.847778 1083.712402,416.121704 
	C1088.675171,416.185486 1090.145020,415.033478 1090.131714,409.834686 
	C1089.944824,336.873138 1089.998169,263.910980 1090.042603,190.948975 
	C1090.043701,189.053268 1090.604248,187.157913 1091.265625,185.124588 
	C1091.700073,186.311142 1091.836670,187.635513 1091.836792,188.959869 
	C1091.842041,263.988983 1091.835815,339.018097 1091.553589,414.720032 
	C1090.173584,416.171967 1089.070801,416.951111 1087.968140,417.730225 
	C1063.963379,417.764160 1039.958496,417.798065 1015.261536,417.558685 
	C1013.730225,417.183258 1012.891174,417.081146 1012.052063,416.979034 
	C1011.986084,415.819122 1011.862366,414.659210 1011.862366,413.499298 
	C1011.859924,276.309509 1011.866577,139.119705 1011.936401,1.464958 
	C1012.000000,1.000000 1012.500000,1.000000 1012.750000,1.000000 
z"/>
<path fill="#FFFCFF" opacity="1.000000" stroke="none" 
	d="
M3071.281738,354.379150 
	C3071.582764,350.487885 3071.698975,347.053864 3072.042236,343.642670 
	C3072.194336,342.131165 3072.805908,340.665863 3073.604492,339.089813 
	C3074.000000,365.354218 3074.000000,391.708466 3074.000000,418.531342 
	C3068.893799,420.958344 3063.734131,421.209778 3058.190674,421.188354 
	C2985.072510,420.905579 2911.952881,420.996429 2838.833740,421.022614 
	C2837.193115,421.023193 2835.527832,421.239563 2833.916504,421.564636 
	C2828.932129,422.569855 2826.110840,420.982880 2823.979980,415.476715 
	C2827.588135,416.026459 2831.209717,417.732483 2834.834473,417.739685 
	C2913.190186,417.895844 2991.545898,417.862335 3070.538574,417.873474 
	C3071.279053,417.820801 3071.474854,417.752045 3071.470459,417.700836 
	C3071.451172,417.480713 3071.373047,417.265686 3071.316162,417.048828 
	C3071.273926,396.314423 3071.231445,375.580048 3071.281738,354.379150 
z"/>
<path fill="#FEFBFE" opacity="1.000000" stroke="none" 
	d="
M3074.000000,38.531342 
	C3071.015381,34.814495 3068.418457,30.272032 3064.962891,26.520472 
	C3058.474365,19.477043 3051.554688,12.823531 3044.667969,6.159461 
	C3042.813721,4.365407 3040.431641,3.117165 3038.145996,1.309135 
	C3049.928711,1.000000 3061.857178,1.000000 3074.000000,1.000000 
	C3074.000000,13.353404 3074.000000,25.708044 3074.000000,38.531342 
z"/>
<path fill="#580A54" opacity="1.000000" stroke="none" 
	d="
M1780.967041,416.927979 
	C1780.976685,278.596008 1780.986328,140.264038 1780.998047,1.466038 
	C1781.000000,1.000000 1781.500000,1.000000 1781.750000,1.000000 
	C1782.047363,1.996151 1782.136108,2.992302 1782.136108,3.988452 
	C1782.135986,141.346924 1782.129272,278.705414 1781.790283,416.523926 
	C1781.457642,416.983948 1780.967041,416.927979 1780.967041,416.927979 
z"/>
<path fill="#51104A" opacity="1.000000" stroke="none" 
	d="
M1702.353760,168.656799 
	C1702.036377,113.277328 1702.011597,57.607281 1701.993408,1.468618 
	C1702.000000,1.000000 1702.500000,1.000000 1702.750000,1.000000 
	C1703.003296,55.308292 1703.009644,109.616585 1702.994629,163.924881 
	C1702.994263,165.405365 1702.767456,166.885788 1702.353760,168.656799 
z"/>
<path fill="#5B0953" opacity="1.000000" stroke="none" 
	d="
M430.990631,416.890930 
	C432.904877,416.595184 434.819000,416.042023 436.733429,416.040802 
	C507.001862,415.996613 577.270325,416.004120 647.538818,416.002930 
	C653.999146,416.002838 654.003296,415.998016 654.004028,409.515167 
	C654.006226,390.033142 654.003113,370.551147 654.008362,351.069122 
	C654.008728,349.571655 653.907166,348.053284 654.110718,346.580231 
	C655.157959,339.003204 655.187378,339.005249 647.396301,339.005219 
	C591.780945,339.005096 536.165588,339.009918 480.550262,338.989929 
	C478.572906,338.989197 476.595612,338.745941 474.331573,338.318298 
	C488.018524,337.964600 501.992188,337.865906 515.965881,337.859741 
	C562.387390,337.839233 608.808960,337.852020 656.000000,337.852020 
	C656.000000,363.973511 656.000000,389.998596 655.584839,416.502625 
	C654.102539,417.231659 653.035400,417.481781 651.968201,417.731873 
	C618.876953,417.770142 585.785767,417.827972 552.694519,417.841583 
	C513.115967,417.857880 473.537445,417.836365 433.302673,417.571594 
	C432.094513,417.171570 431.542572,417.031250 430.990631,416.890930 
z"/>
<path fill="#51104A" opacity="1.000000" stroke="none" 
	d="
M1701.979248,250.485703 
	C1702.315063,252.069717 1702.963867,254.120346 1702.966309,256.171753 
	C1703.028564,309.448761 1703.023560,362.725830 1702.812988,416.488892 
	C1702.595581,416.974854 1702.144653,416.950226 1702.144775,416.950226 
	C1702.091187,396.514404 1702.005371,376.078583 1701.991333,355.642731 
	C1701.967285,320.746033 1701.988647,285.849365 1701.979248,250.485703 
z"/>
<path fill="#580A54" opacity="1.000000" stroke="none" 
	d="
M1705.019409,416.912506 
	C1706.257568,416.610107 1707.495239,416.046783 1708.734131,416.043945 
	C1731.298584,415.992218 1753.863037,416.004944 1776.427612,416.023560 
	C1777.074219,416.024078 1777.720459,416.239014 1778.641602,416.835876 
	C1778.916138,417.317719 1778.921021,417.727295 1778.921021,417.727295 
	C1754.614746,417.761658 1730.308350,417.796051 1705.543213,417.574707 
	C1705.084351,417.319031 1705.019409,416.912506 1705.019409,416.912506 
z"/>
<path fill="#7F497C" opacity="1.000000" stroke="none" 
	d="
M1091.851929,172.619751 
	C1091.587280,171.202759 1091.434692,169.361969 1091.511230,167.245331 
	C1091.814941,168.711624 1091.889404,170.453781 1091.851929,172.619751 
z"/>
<path fill="#7F497C" opacity="1.000000" stroke="none" 
	d="
M1088.354126,417.845459 
	C1089.070801,416.951111 1090.173584,416.171967 1091.503418,415.184570 
	C1092.617676,417.858826 1090.930664,418.161987 1088.354126,417.845459 
z"/>
<path fill="#7F497C" opacity="1.000000" stroke="none" 
	d="
M652.332397,417.847168 
	C653.035400,417.481781 654.102539,417.231659 655.513306,416.962891 
	C654.803406,417.283661 653.750000,417.623077 652.332397,417.847168 
z"/>
<path fill="#7F497C" opacity="1.000000" stroke="none" 
	d="
M1012.137207,417.330139 
	C1012.891174,417.081146 1013.730225,417.183258 1014.797241,417.507324 
	C1014.090820,417.713287 1013.156616,417.697266 1012.137207,417.330139 
z"/>
<path fill="#7F497C" opacity="1.000000" stroke="none" 
	d="
M1704.690918,416.944916 
	C1705.019409,416.912506 1705.084351,417.319031 1705.082275,417.524872 
	C1704.143799,417.708160 1703.207397,417.685577 1702.207886,417.306610 
	C1702.144653,416.950226 1702.595581,416.974854 1702.821289,416.953186 
	C1703.485352,416.946747 1703.923950,416.962036 1704.690918,416.944916 
z"/>
<path fill="#7F497C" opacity="1.000000" stroke="none" 
	d="
M1779.271729,417.842346 
	C1778.921021,417.727295 1778.916138,417.317719 1778.947998,417.114441 
	C1779.421997,416.934082 1779.864258,416.957001 1780.636719,416.953918 
	C1780.967041,416.927979 1781.457642,416.983948 1781.704590,416.981842 
	C1781.175171,417.305634 1780.398926,417.631531 1779.271729,417.842346 
z"/>
<path fill="#7F497C" opacity="1.000000" stroke="none" 
	d="
M430.626709,416.982117 
	C431.542572,417.031250 432.094513,417.171570 432.838379,417.523071 
	C432.070984,417.760895 431.111633,417.787537 429.861786,417.589447 
	C429.801788,417.267578 430.032257,417.170441 430.626709,416.982117 
z"/>
<path fill="#5B0953" opacity="1.000000" stroke="none" 
	d="
M428.255798,416.964966 
	C428.303680,416.795471 428.582336,416.744415 428.931824,416.862122 
	C428.830658,417.048401 428.658630,417.065918 428.255798,416.964966 
z"/>
<path fill="#FFFEFF" opacity="1.000000" stroke="none" 
	d="
M1941.168457,254.999969 
	C1941.169189,210.859985 1941.221069,167.219864 1941.108398,123.580170 
	C1941.093750,117.893257 1942.671875,113.412338 1946.876221,109.388184 
	C1954.448486,102.140335 1961.623779,94.475090 1968.899170,86.920822 
	C1972.796997,82.873558 1977.279907,80.886017 1983.072754,80.938530 
	C2005.057495,81.137863 2027.045776,81.105949 2049.031250,80.958321 
	C2054.767090,80.919807 2059.372314,82.859024 2063.282471,86.881256 
	C2070.939209,94.757263 2078.929199,102.341728 2086.120361,110.620934 
	C2088.716553,113.610115 2090.761963,118.239128 2090.781494,122.131256 
	C2091.073975,180.427444 2090.958252,238.725616 2091.032227,297.023224 
	C2091.038818,302.285797 2088.796387,306.301514 2085.309570,309.827637 
	C2077.814453,317.407471 2070.207031,324.876343 2062.734131,332.478088 
	C2058.987061,336.289917 2054.476318,337.853027 2049.249268,337.849426 
	C2027.096191,337.834137 2004.942993,337.819000 1982.789917,337.867737 
	C1977.518677,337.879333 1973.164551,336.227875 1969.423218,332.343750 
	C1962.029297,324.667480 1954.473755,317.140717 1946.811768,309.731293 
	C1942.841797,305.892120 1941.019409,301.533173 1941.101685,295.974274 
	C1941.301392,282.485443 1941.167847,268.991730 1941.168457,254.999969 
z"/>
<path fill="#FFFFFF" opacity="1.000000" stroke="none" 
	d="
M3071.162109,417.255127 
	C3071.373047,417.265686 3071.451172,417.480713 3071.470459,417.700836 
	C3071.474854,417.752045 3071.279053,417.820801 3070.994141,417.909851 
	C3070.878174,417.779297 3070.943115,417.620361 3071.162109,417.255127 
z"/>
</svg>